<svg width="130" height="130" viewBox="0 0 130 130" fill="none" xmlns="http://www.w3.org/2000/svg">
<rect width="130" height="130" rx="25" fill="black"/>
<path d="M36.8559 75.668C38.2719 75.5 39.3639 75.176 40.1319 74.696V54.608C38.2839 54.632 36.7119 54.716 35.4159 54.86C34.9839 55.46 34.6479 56.156 34.4079 56.948C34.1919 57.716 34.0719 58.412 34.0479 59.036C33.8799 59.06 33.6279 59.072 33.2919 59.072C32.9079 59.072 32.6319 59.06 32.4639 59.036V52.844C35.7759 52.94 38.8479 52.988 41.6799 52.988C43.5759 52.988 45.3999 52.976 47.1519 52.952C48.9279 52.904 50.1879 52.868 50.9319 52.844V59.036C50.7639 59.06 50.5119 59.072 50.1759 59.072C49.8159 59.072 49.5399 59.06 49.3479 59.036C49.1799 57.308 48.7479 55.928 48.0519 54.896C46.4919 54.728 44.9079 54.632 43.2999 54.608V74.696C44.1399 75.152 45.3159 75.476 46.8279 75.668L46.6479 77H36.6399L36.8559 75.668ZM53.0069 75.668C53.6309 75.596 54.1829 75.488 54.6629 75.344C55.1669 75.2 55.6589 74.984 56.1389 74.696V55.256C55.1789 54.752 54.0629 54.428 52.7909 54.284L52.9709 52.988H62.8349L62.6189 54.284C61.2989 54.452 60.1949 54.776 59.3069 55.256V63.752H69.2069V55.256C68.2709 54.776 67.0949 54.452 65.6789 54.284L65.8589 52.988H75.6869L75.5069 54.284C74.3309 54.428 73.2869 54.752 72.3749 55.256V74.696C73.1909 75.176 74.2949 75.5 75.6869 75.668L75.5429 77H65.6789L65.8949 75.668C67.2869 75.5 68.3909 75.176 69.2069 74.696V65.588H59.3069V74.696C60.1709 75.176 61.3469 75.5 62.8349 75.668L62.6549 77H52.7909L53.0069 75.668ZM87.5773 77.252C84.0493 77.252 81.5173 76.196 79.9813 74.084C78.4693 71.972 77.7133 68.936 77.7133 64.976C77.7133 60.992 78.4693 57.944 79.9813 55.832C81.5173 53.72 84.0493 52.664 87.5773 52.664C91.0813 52.664 93.5893 53.732 95.1013 55.868C96.6373 57.98 97.4053 61.028 97.4053 65.012C97.4053 68.972 96.6373 72.008 95.1013 74.12C93.5893 76.208 91.0813 77.252 87.5773 77.252ZM87.5773 75.488C89.2813 75.488 90.5773 75.032 91.4653 74.12C92.3773 73.184 92.9893 71.96 93.3013 70.448C93.6133 68.936 93.7693 67.124 93.7693 65.012C93.7693 62.876 93.6133 61.052 93.3013 59.54C92.9893 58.028 92.3773 56.804 91.4653 55.868C90.5773 54.932 89.2813 54.464 87.5773 54.464C85.8733 54.464 84.5653 54.932 83.6533 55.868C82.7413 56.804 82.1293 58.028 81.8173 59.54C81.5053 61.028 81.3493 62.84 81.3493 64.976C81.3493 68.264 81.7693 70.844 82.6093 72.716C83.4733 74.564 85.1293 75.488 87.5773 75.488Z" fill="white"/>
</svg>
